<mxfile host="app.diagrams.net" modified="2021-04-22T09:32:22.243Z" agent="5.0 (Macintosh; Intel Mac OS X 10_15_7) AppleWebKit/537.36 (KHTML, like Gecko) Chrome/90.0.4430.85 Safari/537.36" etag="thG_kDZzo18KOiqt2twS" version="14.6.5" type="github">
  <diagram id="RUr_bapWwsFVbwf2VHgA" name="Page-1">
    <mxGraphModel dx="815" dy="425" grid="1" gridSize="10" guides="1" tooltips="1" connect="1" arrows="1" fold="1" page="1" pageScale="1" pageWidth="827" pageHeight="1169" math="0" shadow="0">
      <root>
        <mxCell id="0" />
        <mxCell id="1" parent="0" />
        <mxCell id="HeJpR25-gOZv-VZKGuAV-2" value="MSR" style="rounded=1;whiteSpace=wrap;html=1;" vertex="1" parent="1">
          <mxGeometry x="610" y="270" width="120" height="60" as="geometry" />
        </mxCell>
        <mxCell id="HeJpR25-gOZv-VZKGuAV-3" value="MIR 1" style="rounded=1;whiteSpace=wrap;html=1;" vertex="1" parent="1">
          <mxGeometry x="170" y="145" width="120" height="60" as="geometry" />
        </mxCell>
        <mxCell id="HeJpR25-gOZv-VZKGuAV-4" value="MIR 2" style="rounded=1;whiteSpace=wrap;html=1;" vertex="1" parent="1">
          <mxGeometry x="170" y="340" width="120" height="60" as="geometry" />
        </mxCell>
        <mxCell id="HeJpR25-gOZv-VZKGuAV-13" value="maintain" style="edgeStyle=orthogonalEdgeStyle;rounded=0;orthogonalLoop=1;jettySize=auto;html=1;entryX=0.5;entryY=0;entryDx=0;entryDy=0;entryPerimeter=0;endArrow=classic;endFill=1;" edge="1" parent="1" source="HeJpR25-gOZv-VZKGuAV-6" target="HeJpR25-gOZv-VZKGuAV-9">
          <mxGeometry relative="1" as="geometry" />
        </mxCell>
        <mxCell id="HeJpR25-gOZv-VZKGuAV-15" value="registered" style="edgeStyle=orthogonalEdgeStyle;rounded=0;orthogonalLoop=1;jettySize=auto;html=1;" edge="1" parent="1" source="HeJpR25-gOZv-VZKGuAV-6" target="HeJpR25-gOZv-VZKGuAV-3">
          <mxGeometry relative="1" as="geometry" />
        </mxCell>
        <mxCell id="HeJpR25-gOZv-VZKGuAV-17" value="authenticate/register service" style="edgeStyle=orthogonalEdgeStyle;rounded=0;orthogonalLoop=1;jettySize=auto;html=1;entryX=0.5;entryY=0;entryDx=0;entryDy=0;strokeColor=#FF3333;" edge="1" parent="1" source="HeJpR25-gOZv-VZKGuAV-6" target="HeJpR25-gOZv-VZKGuAV-2">
          <mxGeometry x="-0.2942" relative="1" as="geometry">
            <Array as="points">
              <mxPoint x="670" y="175" />
            </Array>
            <mxPoint as="offset" />
          </mxGeometry>
        </mxCell>
        <mxCell id="HeJpR25-gOZv-VZKGuAV-6" value="Service A provider" style="rounded=0;whiteSpace=wrap;html=1;" vertex="1" parent="1">
          <mxGeometry x="370" y="160" width="120" height="30" as="geometry" />
        </mxCell>
        <mxCell id="HeJpR25-gOZv-VZKGuAV-14" value="maintain" style="edgeStyle=orthogonalEdgeStyle;rounded=0;orthogonalLoop=1;jettySize=auto;html=1;entryX=0.5;entryY=0;entryDx=0;entryDy=0;entryPerimeter=0;endArrow=classic;endFill=1;" edge="1" parent="1" source="HeJpR25-gOZv-VZKGuAV-7" target="HeJpR25-gOZv-VZKGuAV-10">
          <mxGeometry relative="1" as="geometry" />
        </mxCell>
        <mxCell id="HeJpR25-gOZv-VZKGuAV-16" value="registered" style="edgeStyle=orthogonalEdgeStyle;rounded=0;orthogonalLoop=1;jettySize=auto;html=1;entryX=1;entryY=0.5;entryDx=0;entryDy=0;" edge="1" parent="1" source="HeJpR25-gOZv-VZKGuAV-7" target="HeJpR25-gOZv-VZKGuAV-4">
          <mxGeometry relative="1" as="geometry" />
        </mxCell>
        <mxCell id="HeJpR25-gOZv-VZKGuAV-18" value="authenticate/register service" style="edgeStyle=orthogonalEdgeStyle;rounded=0;orthogonalLoop=1;jettySize=auto;html=1;entryX=0.5;entryY=1;entryDx=0;entryDy=0;strokeColor=#FF3333;" edge="1" parent="1" source="HeJpR25-gOZv-VZKGuAV-7" target="HeJpR25-gOZv-VZKGuAV-2">
          <mxGeometry relative="1" as="geometry">
            <Array as="points">
              <mxPoint x="670" y="345" />
              <mxPoint x="670" y="330" />
            </Array>
          </mxGeometry>
        </mxCell>
        <mxCell id="HeJpR25-gOZv-VZKGuAV-7" value="Service B provider" style="rounded=0;whiteSpace=wrap;html=1;" vertex="1" parent="1">
          <mxGeometry x="370" y="355" width="120" height="30" as="geometry" />
        </mxCell>
        <mxCell id="HeJpR25-gOZv-VZKGuAV-11" value="registered" style="edgeStyle=orthogonalEdgeStyle;rounded=0;orthogonalLoop=1;jettySize=auto;html=1;entryX=0;entryY=0.5;entryDx=0;entryDy=0;" edge="1" parent="1" source="HeJpR25-gOZv-VZKGuAV-9" target="HeJpR25-gOZv-VZKGuAV-2">
          <mxGeometry relative="1" as="geometry" />
        </mxCell>
        <mxCell id="HeJpR25-gOZv-VZKGuAV-9" value="Service A&lt;br&gt;&lt;br&gt;specification&lt;br&gt;design&lt;br&gt;instance" style="shape=note;whiteSpace=wrap;html=1;backgroundOutline=1;darkOpacity=0.05;size=19;" vertex="1" parent="1">
          <mxGeometry x="380" y="230" width="100" height="80" as="geometry" />
        </mxCell>
        <mxCell id="HeJpR25-gOZv-VZKGuAV-12" value="registered" style="edgeStyle=orthogonalEdgeStyle;rounded=0;orthogonalLoop=1;jettySize=auto;html=1;entryX=0;entryY=0.5;entryDx=0;entryDy=0;" edge="1" parent="1" source="HeJpR25-gOZv-VZKGuAV-10" target="HeJpR25-gOZv-VZKGuAV-2">
          <mxGeometry relative="1" as="geometry" />
        </mxCell>
        <mxCell id="HeJpR25-gOZv-VZKGuAV-10" value="Service B&lt;br&gt;&lt;br&gt;specification&lt;br&gt;design&lt;br&gt;instance" style="shape=note;whiteSpace=wrap;html=1;backgroundOutline=1;darkOpacity=0.05;size=19;" vertex="1" parent="1">
          <mxGeometry x="380" y="425" width="100" height="80" as="geometry" />
        </mxCell>
        <mxCell id="HeJpR25-gOZv-VZKGuAV-19" value="" style="endArrow=classic;html=1;strokeColor=#FF3333;" edge="1" parent="1">
          <mxGeometry width="50" height="50" relative="1" as="geometry">
            <mxPoint x="230" y="479.71" as="sourcePoint" />
            <mxPoint x="260" y="479.71" as="targetPoint" />
          </mxGeometry>
        </mxCell>
        <mxCell id="HeJpR25-gOZv-VZKGuAV-20" value="action:&lt;br&gt;relation:" style="text;html=1;align=left;verticalAlign=middle;resizable=0;points=[];autosize=1;strokeColor=none;" vertex="1" parent="1">
          <mxGeometry x="180" y="470" width="60" height="30" as="geometry" />
        </mxCell>
        <mxCell id="HeJpR25-gOZv-VZKGuAV-21" value="" style="endArrow=classic;html=1;" edge="1" parent="1">
          <mxGeometry width="50" height="50" relative="1" as="geometry">
            <mxPoint x="230" y="493.71000000000004" as="sourcePoint" />
            <mxPoint x="260" y="493.71000000000004" as="targetPoint" />
          </mxGeometry>
        </mxCell>
      </root>
    </mxGraphModel>
  </diagram>
</mxfile>
